<?xml version="1.0" encoding="UTF-8"?>
<svg id="Calque_1" data-name="Calque 1" xmlns="http://www.w3.org/2000/svg" viewBox="0 0 498.28 100.11">
  <defs>
    <style>
      .cls-1 {
        fill: none;
      }

      .cls-2 {
        fill: #f3cf00;
      }

      .cls-3 {
        fill: #fff;
      }

      .cls-4 {
        fill: #4394cf;
      }

      .cls-5 {
        fill: #2b4e9d;
      }
    </style>
  </defs>
  <g>
    <path class="cls-3" d="m111.27,63.91c0-11.44,3.19-20.36,9.56-26.73s15.25-9.56,26.64-9.56,20.66,3.13,26.97,9.4,9.47,15.04,9.47,26.33c0,8.19-1.38,14.91-4.14,20.16-2.76,5.24-6.74,9.33-11.96,12.24-5.21,2.92-11.71,4.38-19.49,4.38s-14.45-1.26-19.63-3.78c-5.18-2.52-9.38-6.5-12.6-11.96-3.22-5.45-4.83-12.27-4.83-20.47Zm22.56-.15c0,7.37,1.37,12.67,4.11,15.89,2.74,3.22,6.46,4.83,11.18,4.83s8.6-1.58,11.25-4.73c2.66-3.15,3.98-8.81,3.98-16.98,0-6.87-1.39-11.89-4.16-15.06-2.77-3.17-6.53-4.76-11.28-4.76s-8.2,1.61-10.96,4.83c-2.76,3.22-4.13,8.55-4.13,15.98Z"/>
    <path class="cls-3" d="m203.14,27.11h22.56v55.03h35.21v17.98h-57.77V27.11Z"/>
    <path class="cls-3" d="m275.25,27.11h22.56v55.03h35.21v17.98h-57.77V27.11Z"/>
    <path class="cls-3" d="m392.23,88.06h-25.61l-3.56,12.05h-23.03l27.44-73h24.61l27.43,73h-23.62l-3.65-12.05Zm-4.68-15.79l-8.06-26.24-7.97,26.24h16.03Z"/>
    <path class="cls-3" d="m430.81,27.11h42.23c7.04,0,12.44,1.74,16.21,5.23s5.65,7.8,5.65,12.95c0,4.32-1.34,8.02-4.03,11.1-1.79,2.06-4.42,3.69-7.87,4.88,5.25,1.26,9.1,3.43,11.58,6.5,2.47,3.07,3.71,6.93,3.71,11.58,0,3.78-.88,7.19-2.64,10.21-1.76,3.02-4.17,5.41-7.22,7.17-1.89,1.1-4.75,1.89-8.57,2.39-5.08.66-8.45,1-10.11,1h-38.94V27.11Zm22.76,28.63h9.81c3.52,0,5.97-.6,7.35-1.82,1.38-1.21,2.07-2.96,2.07-5.25,0-2.12-.69-3.78-2.07-4.98-1.38-1.2-3.78-1.79-7.2-1.79h-9.96v13.84Zm0,28.68h11.5c3.88,0,6.62-.69,8.22-2.07,1.59-1.38,2.39-3.23,2.39-5.55,0-2.16-.79-3.89-2.37-5.2-1.58-1.31-4.34-1.97-8.29-1.97h-11.45v14.79Z"/>
  </g>
  <path class="cls-1" d="m100.12,50.06c0,13.82-5.61,26.35-14.67,35.39l-35.39-35.39L85.47,14.65c9.06,9.07,14.65,21.57,14.65,35.41Z"/>
  <path class="cls-2" d="m85.47,14.64l-35.41,35.41L14.66,14.66C23.71,5.61,36.23,0,50.06,0s26.32,5.59,35.41,14.64Z"/>
  <path class="cls-4" d="m85.45,85.45c-9.08,9.05-21.56,14.66-35.39,14.66s-26.34-5.61-35.41-14.66l35.41-35.41,35.39,35.41Z"/>
  <line class="cls-1" x1="99.18" y1="25.56" x2="97.59" y2="27.14"/>
  <line class="cls-1" x1="14.67" y1="14.66" x2="12.82" y2="12.82"/>
  <line class="cls-1" x1="14.67" y1="85.45" x2="12.82" y2="87.29"/>
  <line class="cls-1" x1="99.18" y1="90.2" x2="97.58" y2="88.6"/>
  <line class="cls-1" x1="99.18" y1="25.56" x2="97.59" y2="27.14"/>
  <path class="cls-5" d="m50.06,50.05L14.66,85.45C5.61,76.39,0,63.88,0,50.05S5.61,23.74,14.66,14.66l35.41,35.39h0Z"/>
</svg>